<svg width="115" height="24" viewBox="0 0 115 24" fill="none" xmlns="http://www.w3.org/2000/svg">
<g clip-path="url(#clip0_62_14760)">
<path fill-rule="evenodd" clip-rule="evenodd" d="M14.724 0.0545221L1.44408 1.0354C0.37272 1.12804 0 1.82812 0 2.66716V17.2256C0 17.8791 0.23208 18.4383 0.792 19.1856L3.91368 23.2448C4.42656 23.8983 4.89288 24.0384 5.87208 23.9919L21.2938 23.0583C22.5977 22.9654 22.9714 22.3582 22.9714 21.332V4.95364C22.9714 4.42324 22.7618 4.27036 22.145 3.81772L17.8001 0.754362C16.7746 0.00868208 16.3553 -0.0856379 14.724 0.0542821V0.0545221ZM6.2208 4.68556C4.96152 4.77028 4.67592 4.78948 3.96072 4.20796L2.14248 2.76172C1.95768 2.57452 2.05056 2.341 2.51616 2.29444L15.2825 1.36156C16.3546 1.26796 16.9128 1.64164 17.3321 1.96804L19.5216 3.55444C19.6152 3.60172 19.848 3.88084 19.5679 3.88084L6.384 4.67452L6.2208 4.68556ZM4.75272 21.192V7.28812C4.75272 6.68092 4.9392 6.40084 5.49744 6.3538L20.64 5.46724C21.1536 5.42092 21.3857 5.74732 21.3857 6.35356V20.1648C21.3857 20.772 21.2921 21.2856 20.4538 21.332L5.96328 22.172C5.12496 22.2183 4.75296 21.9392 4.75296 21.192H4.75272ZM19.0567 8.03356C19.1496 8.45356 19.0567 8.87356 18.6367 8.92156L17.9383 9.06004V19.3256C17.3318 19.652 16.7736 19.8384 16.307 19.8384C15.5614 19.8384 15.3751 19.6049 14.8166 18.9056L10.2494 11.72V18.672L11.6942 18.9992C11.6942 18.9992 11.6942 19.8392 10.5286 19.8392L7.31496 20.0256C7.22136 19.8384 7.31496 19.3721 7.64064 19.2792L8.47992 19.0464V9.85444L7.3152 9.76012C7.2216 9.34012 7.4544 8.73364 8.1072 8.6866L11.5553 8.45452L16.3073 15.733V9.2938L15.096 9.1546C15.0024 8.64028 15.3751 8.2666 15.8407 8.221L19.0567 8.03356Z" fill="white"/>
</g>
<path d="M42.7422 5.85938V17.5H40.8516L35.375 9.57031H35.2734V17.5H33.1641V5.85938H35.0547L40.5312 13.7891H40.6328V5.85938H42.7422ZM48.1484 17.6719C47.2943 17.6719 46.5547 17.4844 45.9297 17.1094C45.3047 16.7344 44.8203 16.2083 44.4766 15.5312C44.138 14.8542 43.9688 14.0677 43.9688 13.1719C43.9688 12.2708 44.138 11.4818 44.4766 10.8047C44.8203 10.1224 45.3047 9.59375 45.9297 9.21875C46.5547 8.84375 47.2943 8.65625 48.1484 8.65625C49.0026 8.65625 49.7422 8.84375 50.3672 9.21875C50.9922 9.59375 51.4766 10.1224 51.8203 10.8047C52.1641 11.4818 52.3359 12.2708 52.3359 13.1719C52.3359 14.0677 52.1641 14.8542 51.8203 15.5312C51.4766 16.2083 50.9922 16.7344 50.3672 17.1094C49.7422 17.4844 49.0026 17.6719 48.1484 17.6719ZM48.1484 16.0156C48.6224 16.0156 49.013 15.8906 49.3203 15.6406C49.6276 15.3854 49.8568 15.0417 50.0078 14.6094C50.1641 14.1771 50.2422 13.6979 50.2422 13.1719C50.2422 12.6354 50.1641 12.151 50.0078 11.7188C49.8568 11.2865 49.6276 10.9453 49.3203 10.6953C49.013 10.4401 48.6224 10.3125 48.1484 10.3125C47.6849 10.3125 47.2969 10.4401 46.9844 10.6953C46.6719 10.9453 46.4375 11.2865 46.2812 11.7188C46.1302 12.151 46.0547 12.6354 46.0547 13.1719C46.0547 13.6979 46.1302 14.1771 46.2812 14.6094C46.4375 15.0417 46.6719 15.3854 46.9844 15.6406C47.2969 15.8906 47.6849 16.0156 48.1484 16.0156ZM57.8203 8.76562V10.3594H52.8125V8.76562H57.8203ZM54.0391 6.6875H56.0938V14.875C56.0938 15.2188 56.1693 15.474 56.3203 15.6406C56.4714 15.8021 56.7109 15.8828 57.0391 15.8828C57.1276 15.8828 57.2266 15.875 57.3359 15.8594C57.4453 15.8438 57.5443 15.8255 57.6328 15.8047L57.9844 17.4141C57.7656 17.4818 57.5443 17.5312 57.3203 17.5625C57.0964 17.599 56.8724 17.6172 56.6484 17.6172C55.8359 17.6172 55.1979 17.4036 54.7344 16.9766C54.2708 16.5443 54.0391 15.9557 54.0391 15.2109V6.6875ZM58.9531 17.5V8.76562H61.0078V17.5H58.9531ZM59.9844 7.53906C59.6562 7.53906 59.375 7.42969 59.1406 7.21094C58.9062 6.99219 58.7891 6.72917 58.7891 6.42188C58.7891 6.10938 58.9062 5.84375 59.1406 5.625C59.375 5.40625 59.6562 5.29688 59.9844 5.29688C60.3073 5.29688 60.5859 5.40625 60.8203 5.625C61.0547 5.84375 61.1719 6.10677 61.1719 6.41406C61.1719 6.72656 61.0547 6.99219 60.8203 7.21094C60.5859 7.42969 60.3073 7.53906 59.9844 7.53906ZM66.3359 17.6719C65.4818 17.6719 64.7422 17.4844 64.1172 17.1094C63.4922 16.7344 63.0078 16.2083 62.6641 15.5312C62.3255 14.8542 62.1562 14.0677 62.1562 13.1719C62.1562 12.2708 62.3255 11.4818 62.6641 10.8047C63.0078 10.1224 63.4922 9.59375 64.1172 9.21875C64.7422 8.84375 65.4818 8.65625 66.3359 8.65625C67.1901 8.65625 67.9297 8.84375 68.5547 9.21875C69.1797 9.59375 69.6641 10.1224 70.0078 10.8047C70.3516 11.4818 70.5234 12.2708 70.5234 13.1719C70.5234 14.0677 70.3516 14.8542 70.0078 15.5312C69.6641 16.2083 69.1797 16.7344 68.5547 17.1094C67.9297 17.4844 67.1901 17.6719 66.3359 17.6719ZM66.3359 16.0156C66.8099 16.0156 67.2005 15.8906 67.5078 15.6406C67.8151 15.3854 68.0443 15.0417 68.1953 14.6094C68.3516 14.1771 68.4297 13.6979 68.4297 13.1719C68.4297 12.6354 68.3516 12.151 68.1953 11.7188C68.0443 11.2865 67.8151 10.9453 67.5078 10.6953C67.2005 10.4401 66.8099 10.3125 66.3359 10.3125C65.8724 10.3125 65.4844 10.4401 65.1719 10.6953C64.8594 10.9453 64.625 11.2865 64.4688 11.7188C64.3177 12.151 64.2422 12.6354 64.2422 13.1719C64.2422 13.6979 64.3177 14.1771 64.4688 14.6094C64.625 15.0417 64.8594 15.3854 65.1719 15.6406C65.4844 15.8906 65.8724 16.0156 66.3359 16.0156ZM73.7109 12.3906V17.5H71.6562V8.76562H73.6719V10.2578H73.7734C73.9714 9.76823 74.2812 9.38021 74.7031 9.09375C75.1302 8.80208 75.6719 8.65625 76.3281 8.65625C76.9323 8.65625 77.4583 8.78385 77.9062 9.03906C78.3542 9.29427 78.7005 9.66927 78.9453 10.1641C79.1953 10.6536 79.3203 11.2474 79.3203 11.9453V17.5H77.2656V12.2656C77.2656 11.6823 77.1146 11.2266 76.8125 10.8984C76.5104 10.5651 76.0938 10.3984 75.5625 10.3984C75.2031 10.3984 74.8828 10.4766 74.6016 10.6328C74.3255 10.7891 74.1068 11.0156 73.9453 11.3125C73.7891 11.6042 73.7109 11.9635 73.7109 12.3906ZM86.7734 17.5L83.4922 5.85938H85.7578L87.8594 14.4141H87.9609L90.2031 5.85938H92.2734L94.5 14.4219H94.6172L96.7031 5.85938H98.9844L95.6953 17.5H93.6094L91.2812 9.34375H91.1875L88.8672 17.5H86.7734ZM99.7812 17.5V8.76562H101.836V17.5H99.7812ZM100.812 7.53906C100.484 7.53906 100.203 7.42969 99.9688 7.21094C99.7344 6.99219 99.6172 6.72917 99.6172 6.42188C99.6172 6.10938 99.7344 5.84375 99.9688 5.625C100.203 5.40625 100.484 5.29688 100.812 5.29688C101.135 5.29688 101.414 5.40625 101.648 5.625C101.883 5.84375 102 6.10677 102 6.41406C102 6.72656 101.883 6.99219 101.648 7.21094C101.414 7.42969 101.135 7.53906 100.812 7.53906ZM105.234 14.7656L105.227 12.2734H105.562L108.695 8.76562H111.102L107.242 13.0703H106.812L105.234 14.7656ZM103.359 17.5V5.85938H105.414V17.5H103.359ZM108.836 17.5L105.992 13.5312L107.383 12.0781L111.297 17.5H108.836ZM111.859 17.5V8.76562H113.914V17.5H111.859ZM112.891 7.53906C112.562 7.53906 112.281 7.42969 112.047 7.21094C111.812 6.99219 111.695 6.72917 111.695 6.42188C111.695 6.10938 111.812 5.84375 112.047 5.625C112.281 5.40625 112.562 5.29688 112.891 5.29688C113.214 5.29688 113.492 5.40625 113.727 5.625C113.961 5.84375 114.078 6.10677 114.078 6.41406C114.078 6.72656 113.961 6.99219 113.727 7.21094C113.492 7.42969 113.214 7.53906 112.891 7.53906Z" fill="white"/>
<defs>
<clipPath id="clip0_62_14760">
<rect width="24" height="24" fill="white"/>
</clipPath>
</defs>
</svg>
