<svg width="98" height="24" viewBox="0 0 98 24" fill="none" xmlns="http://www.w3.org/2000/svg">
<path fill-rule="evenodd" clip-rule="evenodd" d="M1.5 2H19.5V4.45582H1.5V2ZM1.5 10.9578H19.5V22L10.4982 17.0862L1.5 22V10.9578ZM1.5 6.47889H19.5V8.9347H1.5V6.47889Z" fill="white"/>
<path d="M34.0703 17.6797C33.1641 17.6797 32.3776 17.5391 31.7109 17.2578C31.0443 16.9766 30.5234 16.5677 30.1484 16.0312C29.7734 15.4896 29.5703 14.8333 29.5391 14.0625H31.6172C31.6484 14.4688 31.7734 14.8073 31.9922 15.0781C32.2109 15.3438 32.4974 15.5443 32.8516 15.6797C33.2109 15.8151 33.6094 15.8828 34.0469 15.8828C34.5052 15.8828 34.9089 15.8125 35.2578 15.6719C35.6068 15.5312 35.8802 15.3359 36.0781 15.0859C36.276 14.8359 36.375 14.5443 36.375 14.2109C36.375 13.9089 36.2865 13.6615 36.1094 13.4688C35.9323 13.2708 35.6875 13.1042 35.375 12.9688C35.0625 12.8333 34.6953 12.7135 34.2734 12.6094L32.9531 12.2656C31.9948 12.0208 31.2396 11.6484 30.6875 11.1484C30.1354 10.6432 29.8594 9.97135 29.8594 9.13281C29.8594 8.44531 30.0443 7.84635 30.4141 7.33594C30.7839 6.82031 31.2891 6.41927 31.9297 6.13281C32.5755 5.84635 33.3047 5.70312 34.1172 5.70312C34.9453 5.70312 35.6719 5.84635 36.2969 6.13281C36.9219 6.41927 37.4115 6.8151 37.7656 7.32031C38.1198 7.82552 38.3047 8.40625 38.3203 9.0625H36.2812C36.2292 8.5625 36.0078 8.17708 35.6172 7.90625C35.2318 7.63021 34.724 7.49219 34.0938 7.49219C33.6562 7.49219 33.2786 7.55729 32.9609 7.6875C32.6484 7.81771 32.4089 7.9974 32.2422 8.22656C32.0755 8.45573 31.9922 8.71615 31.9922 9.00781C31.9922 9.33073 32.0885 9.59635 32.2812 9.80469C32.4792 10.0078 32.7292 10.1719 33.0312 10.2969C33.3385 10.4219 33.651 10.526 33.9688 10.6094L35.0547 10.8828C35.4922 10.987 35.9141 11.1276 36.3203 11.3047C36.7266 11.4766 37.0911 11.6953 37.4141 11.9609C37.7422 12.2214 38 12.5391 38.1875 12.9141C38.3802 13.2891 38.4766 13.7292 38.4766 14.2344C38.4766 14.9115 38.3021 15.5104 37.9531 16.0312C37.6042 16.5469 37.1016 16.9505 36.4453 17.2422C35.7891 17.5339 34.9974 17.6797 34.0703 17.6797ZM45.2188 13.8359V8.76562H47.2734V17.5H45.2812V15.9453H45.1875C44.9896 16.4349 44.6667 16.8359 44.2188 17.1484C43.7708 17.4609 43.2188 17.6146 42.5625 17.6094C41.9896 17.6094 41.4844 17.4844 41.0469 17.2344C40.6146 16.9792 40.2734 16.6068 40.0234 16.1172C39.7786 15.6224 39.6562 15.026 39.6562 14.3281V8.76562H41.7109V14.0156C41.7109 14.5625 41.862 15 42.1641 15.3281C42.4714 15.6562 42.8724 15.8177 43.3672 15.8125C43.6693 15.8125 43.9609 15.7396 44.2422 15.5938C44.5286 15.4479 44.763 15.2292 44.9453 14.9375C45.1276 14.6458 45.2188 14.2786 45.2188 13.8359ZM53.4297 17.6562C52.9349 17.6562 52.5208 17.5729 52.1875 17.4062C51.8594 17.2344 51.5938 17.0312 51.3906 16.7969C51.1927 16.5573 51.0417 16.3307 50.9375 16.1172H50.8125V17.5H48.7969V5.85938H50.8516V10.2109H50.9375C51.0417 10.0026 51.1901 9.77865 51.3828 9.53906C51.5755 9.29427 51.8359 9.08594 52.1641 8.91406C52.4974 8.74219 52.9219 8.65625 53.4375 8.65625C54.1094 8.65625 54.7161 8.82812 55.2578 9.17188C55.7995 9.51562 56.2292 10.0208 56.5469 10.6875C56.8698 11.3542 57.0312 12.1745 57.0312 13.1484C57.0312 14.1068 56.875 14.9219 56.5625 15.5938C56.25 16.2656 55.8203 16.7786 55.2734 17.1328C54.7318 17.4818 54.1172 17.6562 53.4297 17.6562ZM52.8672 15.9688C53.3203 15.9688 53.6979 15.8464 54 15.6016C54.3073 15.3568 54.5391 15.0208 54.6953 14.5938C54.8516 14.1667 54.9297 13.6823 54.9297 13.1406C54.9297 12.599 54.8516 12.1172 54.6953 11.6953C54.5391 11.2734 54.3099 10.9427 54.0078 10.7031C53.7057 10.4635 53.3255 10.3438 52.8672 10.3438C52.4245 10.3438 52.0495 10.4583 51.7422 10.6875C51.4401 10.9167 51.2083 11.2422 51.0469 11.6641C50.8906 12.0807 50.8125 12.5729 50.8125 13.1406C50.8125 13.7031 50.8906 14.1979 51.0469 14.625C51.2083 15.0469 51.4427 15.3776 51.75 15.6172C52.0573 15.8516 52.4297 15.9688 52.8672 15.9688ZM65.0625 11.0859L63.1953 11.2812C63.1172 10.9948 62.9479 10.7422 62.6875 10.5234C62.4271 10.2995 62.0599 10.1875 61.5859 10.1875C61.1589 10.1875 60.7995 10.2812 60.5078 10.4688C60.2214 10.6562 60.0781 10.8958 60.0781 11.1875C60.0781 11.4427 60.1719 11.6536 60.3594 11.8203C60.5521 11.9818 60.8698 12.112 61.3125 12.2109L62.8047 12.5234C63.6224 12.6953 64.2344 12.9766 64.6406 13.3672C65.0469 13.7578 65.25 14.263 65.25 14.8828C65.25 15.4297 65.0911 15.9141 64.7734 16.3359C64.4557 16.7578 64.0156 17.0859 63.4531 17.3203C62.8958 17.5547 62.2526 17.6719 61.5234 17.6719C60.4557 17.6719 59.5964 17.4479 58.9453 17C58.2995 16.5469 57.9115 15.9193 57.7812 15.1172L59.7891 14.9297C59.8776 15.3203 60.0703 15.6172 60.3672 15.8203C60.6693 16.0182 61.0547 16.1172 61.5234 16.1172C62.013 16.1172 62.4062 16.0182 62.7031 15.8203C63 15.6172 63.1484 15.3698 63.1484 15.0781C63.1484 14.5885 62.7578 14.2552 61.9766 14.0781L60.4844 13.7656C59.6458 13.5833 59.026 13.2891 58.625 12.8828C58.224 12.4714 58.0234 11.9479 58.0234 11.3125C58.0234 10.7708 58.1719 10.3021 58.4688 9.90625C58.7656 9.51042 59.1797 9.20312 59.7109 8.98438C60.2422 8.76562 60.8568 8.65625 61.5547 8.65625C62.5807 8.65625 63.3854 8.8776 63.9688 9.32031C64.5573 9.75781 64.9219 10.3464 65.0625 11.0859ZM70.7109 8.76562V10.3594H65.7031V8.76562H70.7109ZM66.9297 6.6875H68.9844V14.875C68.9844 15.2188 69.0599 15.474 69.2109 15.6406C69.362 15.8021 69.6016 15.8828 69.9297 15.8828C70.0182 15.8828 70.1172 15.875 70.2266 15.8594C70.3359 15.8438 70.4349 15.8255 70.5234 15.8047L70.875 17.4141C70.6562 17.4818 70.4349 17.5312 70.2109 17.5625C69.987 17.599 69.763 17.6172 69.5391 17.6172C68.7266 17.6172 68.0885 17.4036 67.625 16.9766C67.1615 16.5443 66.9297 15.9557 66.9297 15.2109V6.6875ZM74.3594 17.6797C73.8021 17.6797 73.3021 17.5807 72.8594 17.3828C72.4167 17.1797 72.0677 16.8828 71.8125 16.4922C71.5573 16.1016 71.4297 15.6198 71.4297 15.0469C71.4297 14.5573 71.5208 14.151 71.7031 13.8281C71.8854 13.5052 72.1328 13.2474 72.4453 13.0547C72.763 12.862 73.1198 12.7161 73.5156 12.6172C73.9115 12.513 74.3203 12.4401 74.7422 12.3984C75.2578 12.3411 75.6745 12.2917 75.9922 12.25C76.3099 12.2083 76.5391 12.1406 76.6797 12.0469C76.8255 11.9531 76.8984 11.8073 76.8984 11.6094V11.5703C76.8984 11.1484 76.7734 10.8203 76.5234 10.5859C76.2734 10.3516 75.9089 10.2344 75.4297 10.2344C74.9245 10.2344 74.5234 10.3438 74.2266 10.5625C73.9349 10.7812 73.737 11.0391 73.6328 11.3359L71.7188 11.0625C71.8698 10.5312 72.1198 10.0885 72.4688 9.73438C72.8177 9.375 73.2422 9.10677 73.7422 8.92969C74.2474 8.7474 74.8047 8.65625 75.4141 8.65625C75.8307 8.65625 76.2474 8.70573 76.6641 8.80469C77.0807 8.89844 77.4635 9.0599 77.8125 9.28906C78.1615 9.51823 78.4401 9.82552 78.6484 10.2109C78.8568 10.5964 78.9609 11.0781 78.9609 11.6562V17.5H76.9844V16.2969H76.9219C76.7969 16.5365 76.6198 16.763 76.3906 16.9766C76.1667 17.1849 75.8854 17.3542 75.5469 17.4844C75.2135 17.6146 74.8177 17.6797 74.3594 17.6797ZM74.8828 16.1641C75.2995 16.1641 75.6589 16.0833 75.9609 15.9219C76.263 15.7552 76.4974 15.5365 76.6641 15.2656C76.8307 14.9896 76.9141 14.6901 76.9141 14.3672V13.3438C76.8464 13.3958 76.737 13.4453 76.5859 13.4922C76.4349 13.5339 76.263 13.5729 76.0703 13.6094C75.8776 13.6458 75.6875 13.6771 75.5 13.7031C75.3177 13.7292 75.1589 13.75 75.0234 13.7656C74.7161 13.8073 74.4401 13.8776 74.1953 13.9766C73.9557 14.0703 73.7656 14.2005 73.625 14.3672C73.4844 14.5339 73.4141 14.75 73.4141 15.0156C73.4141 15.3958 73.5521 15.6823 73.8281 15.875C74.1042 16.0677 74.4557 16.1641 74.8828 16.1641ZM84.2891 17.6719C83.4193 17.6719 82.6719 17.4818 82.0469 17.1016C81.4219 16.7161 80.9427 16.1849 80.6094 15.5078C80.276 14.8307 80.1094 14.0521 80.1094 13.1719C80.1094 12.2812 80.2786 11.4974 80.6172 10.8203C80.9557 10.1432 81.4375 9.61458 82.0625 9.23438C82.6875 8.84896 83.4245 8.65625 84.2734 8.65625C84.987 8.65625 85.6172 8.78646 86.1641 9.04688C86.7109 9.30729 87.1458 9.67448 87.4688 10.1484C87.7969 10.6172 87.9844 11.1667 88.0312 11.7969H86.0625C86.0104 11.5156 85.9089 11.263 85.7578 11.0391C85.6068 10.8151 85.4089 10.638 85.1641 10.5078C84.9245 10.3776 84.638 10.3125 84.3047 10.3125C83.8828 10.3125 83.513 10.4271 83.1953 10.6562C82.8828 10.8802 82.638 11.2031 82.4609 11.625C82.2839 12.0469 82.1953 12.5521 82.1953 13.1406C82.1953 13.7344 82.2812 14.2474 82.4531 14.6797C82.625 15.1068 82.8698 15.4375 83.1875 15.6719C83.5052 15.901 83.8776 16.0156 84.3047 16.0156C84.7578 16.0156 85.1406 15.8828 85.4531 15.6172C85.7708 15.3516 85.974 14.9844 86.0625 14.5156H88.0312C87.9844 15.1354 87.8021 15.6823 87.4844 16.1562C87.1667 16.6302 86.737 17.0026 86.1953 17.2734C85.6536 17.5391 85.0182 17.6719 84.2891 17.6719ZM91.0156 14.7656L91.0078 12.2734H91.3438L94.4766 8.76562H96.8828L93.0234 13.0703H92.5938L91.0156 14.7656ZM89.1406 17.5V5.85938H91.1953V17.5H89.1406ZM94.6172 17.5L91.7734 13.5312L93.1641 12.0781L97.0781 17.5H94.6172Z" fill="white"/>
</svg>
