<svg width="104" height="24" viewBox="0 0 104 24" fill="none" xmlns="http://www.w3.org/2000/svg">
<path d="M34.7017 6.43374C34.4867 4.39301 34.0241 2.13708 32.3215 0.95153C31.0028 0.0321639 29.2695 -0.00182421 27.6513 6.36018e-05C24.2307 6.36018e-05 20.8082 0.00573442 17.3877 0.00762223C14.0976 0.0113979 10.8075 0.0132834 7.51749 0.017059C6.14312 0.017059 4.80713 -0.0867731 3.53065 0.498449C2.4346 1.00061 1.57658 1.95585 1.06023 3.01869C0.344249 4.49685 0.194534 6.17134 0.108156 7.80618C-0.0511643 10.7833 -0.0338886 13.7679 0.156144 16.7431C0.296269 18.9141 0.651374 21.3135 2.35783 22.6973C3.87041 23.9225 6.00491 23.9829 7.96665 23.9848C14.1936 23.9904 20.4224 23.9961 26.6513 23.9998C27.4498 24.0017 28.2829 23.9866 29.0967 23.8998C30.6976 23.7299 32.2236 23.2787 33.2525 22.112C34.2909 20.9359 34.5578 19.2992 34.7152 17.7493C35.0991 13.9888 35.0952 10.1924 34.7017 6.43374ZM13.7866 17.2717V6.72824L23.0695 11.999L13.7866 17.2717Z" fill="white"/>
<path d="M43.4531 5.85938H45.8359L48.6797 11.0156H48.8047L51.6484 5.85938H54.0312L49.7891 13.1562V17.5H47.6875V13.1562L43.4531 5.85938ZM57.0312 17.6719C56.1771 17.6719 55.4375 17.4844 54.8125 17.1094C54.1875 16.7344 53.7031 16.2083 53.3594 15.5312C53.0208 14.8542 52.8516 14.0677 52.8516 13.1719C52.8516 12.2708 53.0208 11.4818 53.3594 10.8047C53.7031 10.1224 54.1875 9.59375 54.8125 9.21875C55.4375 8.84375 56.1771 8.65625 57.0312 8.65625C57.8854 8.65625 58.625 8.84375 59.25 9.21875C59.875 9.59375 60.3594 10.1224 60.7031 10.8047C61.0469 11.4818 61.2188 12.2708 61.2188 13.1719C61.2188 14.0677 61.0469 14.8542 60.7031 15.5312C60.3594 16.2083 59.875 16.7344 59.25 17.1094C58.625 17.4844 57.8854 17.6719 57.0312 17.6719ZM57.0312 16.0156C57.5052 16.0156 57.8958 15.8906 58.2031 15.6406C58.5104 15.3854 58.7396 15.0417 58.8906 14.6094C59.0469 14.1771 59.125 13.6979 59.125 13.1719C59.125 12.6354 59.0469 12.151 58.8906 11.7188C58.7396 11.2865 58.5104 10.9453 58.2031 10.6953C57.8958 10.4401 57.5052 10.3125 57.0312 10.3125C56.5677 10.3125 56.1797 10.4401 55.8672 10.6953C55.5547 10.9453 55.3203 11.2865 55.1641 11.7188C55.013 12.151 54.9375 12.6354 54.9375 13.1719C54.9375 13.6979 55.013 14.1771 55.1641 14.6094C55.3203 15.0417 55.5547 15.3854 55.8672 15.6406C56.1797 15.8906 56.5677 16.0156 57.0312 16.0156ZM67.9141 13.8359V8.76562H69.9688V17.5H67.9766V15.9453H67.8828C67.6849 16.4349 67.362 16.8359 66.9141 17.1484C66.4661 17.4609 65.9141 17.6146 65.2578 17.6094C64.6849 17.6094 64.1797 17.4844 63.7422 17.2344C63.3099 16.9792 62.9688 16.6068 62.7188 16.1172C62.474 15.6224 62.3516 15.026 62.3516 14.3281V8.76562H64.4062V14.0156C64.4062 14.5625 64.5573 15 64.8594 15.3281C65.1667 15.6562 65.5677 15.8177 66.0625 15.8125C66.3646 15.8125 66.6562 15.7396 66.9375 15.5938C67.224 15.4479 67.4583 15.2292 67.6406 14.9375C67.8229 14.6458 67.9141 14.2786 67.9141 13.8359ZM75.8438 8.76562V10.3594H70.8359V8.76562H75.8438ZM72.0625 6.6875H74.1172V14.875C74.1172 15.2188 74.1927 15.474 74.3438 15.6406C74.4948 15.8021 74.7344 15.8828 75.0625 15.8828C75.151 15.8828 75.25 15.875 75.3594 15.8594C75.4688 15.8438 75.5677 15.8255 75.6562 15.8047L76.0078 17.4141C75.7891 17.4818 75.5677 17.5312 75.3438 17.5625C75.1198 17.599 74.8958 17.6172 74.6719 17.6172C73.8594 17.6172 73.2214 17.4036 72.7578 16.9766C72.2943 16.5443 72.0625 15.9557 72.0625 15.2109V6.6875ZM82.5391 13.8359V8.76562H84.5938V17.5H82.6016V15.9453H82.5078C82.3099 16.4349 81.987 16.8359 81.5391 17.1484C81.0911 17.4609 80.5391 17.6146 79.8828 17.6094C79.3099 17.6094 78.8047 17.4844 78.3672 17.2344C77.9349 16.9792 77.5938 16.6068 77.3438 16.1172C77.099 15.6224 76.9766 15.026 76.9766 14.3281V8.76562H79.0312V14.0156C79.0312 14.5625 79.1823 15 79.4844 15.3281C79.7917 15.6562 80.1927 15.8177 80.6875 15.8125C80.9896 15.8125 81.2812 15.7396 81.5625 15.5938C81.849 15.4479 82.0833 15.2292 82.2656 14.9375C82.4479 14.6458 82.5391 14.2786 82.5391 13.8359ZM90.75 17.6562C90.2552 17.6562 89.8411 17.5729 89.5078 17.4062C89.1797 17.2344 88.9141 17.0312 88.7109 16.7969C88.513 16.5573 88.362 16.3307 88.2578 16.1172H88.1328V17.5H86.1172V5.85938H88.1719V10.2109H88.2578C88.362 10.0026 88.5104 9.77865 88.7031 9.53906C88.8958 9.29427 89.1562 9.08594 89.4844 8.91406C89.8177 8.74219 90.2422 8.65625 90.7578 8.65625C91.4297 8.65625 92.0365 8.82812 92.5781 9.17188C93.1198 9.51562 93.5495 10.0208 93.8672 10.6875C94.1901 11.3542 94.3516 12.1745 94.3516 13.1484C94.3516 14.1068 94.1953 14.9219 93.8828 15.5938C93.5703 16.2656 93.1406 16.7786 92.5938 17.1328C92.0521 17.4818 91.4375 17.6562 90.75 17.6562ZM90.1875 15.9688C90.6406 15.9688 91.0182 15.8464 91.3203 15.6016C91.6276 15.3568 91.8594 15.0208 92.0156 14.5938C92.1719 14.1667 92.25 13.6823 92.25 13.1406C92.25 12.599 92.1719 12.1172 92.0156 11.6953C91.8594 11.2734 91.6302 10.9427 91.3281 10.7031C91.026 10.4635 90.6458 10.3438 90.1875 10.3438C89.7448 10.3438 89.3698 10.4583 89.0625 10.6875C88.7604 10.9167 88.5286 11.2422 88.3672 11.6641C88.2109 12.0807 88.1328 12.5729 88.1328 13.1406C88.1328 13.7031 88.2109 14.1979 88.3672 14.625C88.5286 15.0469 88.763 15.3776 89.0703 15.6172C89.3776 15.8516 89.75 15.9688 90.1875 15.9688ZM99.3594 17.6719C98.4844 17.6719 97.7292 17.4896 97.0938 17.125C96.4583 16.7552 95.9688 16.2344 95.625 15.5625C95.2865 14.8906 95.1172 14.099 95.1172 13.1875C95.1172 12.2865 95.2865 11.4974 95.625 10.8203C95.9635 10.138 96.4401 9.60677 97.0547 9.22656C97.6693 8.84635 98.3932 8.65625 99.2266 8.65625C99.763 8.65625 100.271 8.74219 100.75 8.91406C101.234 9.08594 101.661 9.35156 102.031 9.71094C102.406 10.0703 102.701 10.5286 102.914 11.0859C103.128 11.638 103.234 12.2969 103.234 13.0625V13.7031H96.0781V12.3203H102.211L101.25 12.7266C101.25 12.2318 101.174 11.8021 101.023 11.4375C100.872 11.0677 100.648 10.7786 100.352 10.5703C100.055 10.362 99.6849 10.2578 99.2422 10.2578C98.7995 10.2578 98.4219 10.362 98.1094 10.5703C97.7969 10.7786 97.5599 11.0599 97.3984 11.4141C97.237 11.763 97.1562 12.1536 97.1562 12.5859V13.5469C97.1562 14.0781 97.2474 14.5339 97.4297 14.9141C97.6172 15.2891 97.8776 15.5755 98.2109 15.7734C98.5495 15.9714 98.9427 16.0703 99.3906 16.0703C99.6823 16.0703 99.9479 16.0286 100.188 15.9453C100.432 15.862 100.641 15.737 100.812 15.5703C100.99 15.3984 101.125 15.1875 101.219 14.9375L103.141 15.1641C103.016 15.6693 102.784 16.112 102.445 16.4922C102.112 16.8672 101.682 17.1589 101.156 17.3672C100.635 17.5703 100.036 17.6719 99.3594 17.6719Z" fill="white"/>
</svg>
