<svg width="99" height="24" viewBox="0 0 99 24" fill="none" xmlns="http://www.w3.org/2000/svg">
<path d="M13.941 10.392L21.5356 1.5H19.7355L13.1431 9.2205L7.87505 1.5H1.80005L9.76505 13.176L1.80005 22.5H3.60005L10.563 14.346L16.1266 22.5H22.2015L13.941 10.392ZM11.4766 13.278L10.6695 12.1155L4.24805 2.865H7.01255L12.1935 10.3305L13.0005 11.493L19.7371 21.198H16.9725L11.4766 13.278Z" fill="white"/>
<path d="M32.7344 7.625V5.85938H42.0156V7.625H38.4219V17.5H36.3359V7.625H32.7344ZM43.9141 17.5L41.4453 8.76562H43.5391L45.0781 14.9062H45.1562L46.7266 8.76562H48.7969L50.3672 14.8828H50.4453L51.9609 8.76562H54.0625L51.5938 17.5H49.4453L47.8047 11.6016H47.6953L46.0547 17.5H43.9141ZM54.9062 17.5V8.76562H56.9609V17.5H54.9062ZM55.9375 7.53906C55.6094 7.53906 55.3281 7.42969 55.0938 7.21094C54.8594 6.99219 54.7422 6.72917 54.7422 6.42188C54.7422 6.10938 54.8594 5.84375 55.0938 5.625C55.3281 5.40625 55.6094 5.29688 55.9375 5.29688C56.2604 5.29688 56.5391 5.40625 56.7734 5.625C57.0078 5.84375 57.125 6.10677 57.125 6.41406C57.125 6.72656 57.0078 6.99219 56.7734 7.21094C56.5391 7.42969 56.2604 7.53906 55.9375 7.53906ZM62.8359 8.76562V10.3594H57.8281V8.76562H62.8359ZM59.0547 6.6875H61.1094V14.875C61.1094 15.2188 61.1849 15.474 61.3359 15.6406C61.487 15.8021 61.7266 15.8828 62.0547 15.8828C62.1432 15.8828 62.2422 15.875 62.3516 15.8594C62.4609 15.8438 62.5599 15.8255 62.6484 15.8047L63 17.4141C62.7812 17.4818 62.5599 17.5312 62.3359 17.5625C62.112 17.599 61.888 17.6172 61.6641 17.6172C60.8516 17.6172 60.2135 17.4036 59.75 16.9766C59.2865 16.5443 59.0547 15.9557 59.0547 15.2109V6.6875ZM68.3203 8.76562V10.3594H63.3125V8.76562H68.3203ZM64.5391 6.6875H66.5938V14.875C66.5938 15.2188 66.6693 15.474 66.8203 15.6406C66.9714 15.8021 67.2109 15.8828 67.5391 15.8828C67.6276 15.8828 67.7266 15.875 67.8359 15.8594C67.9453 15.8438 68.0443 15.8255 68.1328 15.8047L68.4844 17.4141C68.2656 17.4818 68.0443 17.5312 67.8203 17.5625C67.5964 17.599 67.3724 17.6172 67.1484 17.6172C66.3359 17.6172 65.6979 17.4036 65.2344 16.9766C64.7708 16.5443 64.5391 15.9557 64.5391 15.2109V6.6875ZM73.2266 17.6719C72.3516 17.6719 71.5964 17.4896 70.9609 17.125C70.3255 16.7552 69.8359 16.2344 69.4922 15.5625C69.1536 14.8906 68.9844 14.099 68.9844 13.1875C68.9844 12.2865 69.1536 11.4974 69.4922 10.8203C69.8307 10.138 70.3073 9.60677 70.9219 9.22656C71.5365 8.84635 72.2604 8.65625 73.0938 8.65625C73.6302 8.65625 74.138 8.74219 74.6172 8.91406C75.1016 9.08594 75.5286 9.35156 75.8984 9.71094C76.2734 10.0703 76.5677 10.5286 76.7812 11.0859C76.9948 11.638 77.1016 12.2969 77.1016 13.0625V13.7031H69.9453V12.3203H76.0781L75.1172 12.7266C75.1172 12.2318 75.0417 11.8021 74.8906 11.4375C74.7396 11.0677 74.5156 10.7786 74.2188 10.5703C73.9219 10.362 73.5521 10.2578 73.1094 10.2578C72.6667 10.2578 72.2891 10.362 71.9766 10.5703C71.6641 10.7786 71.4271 11.0599 71.2656 11.4141C71.1042 11.763 71.0234 12.1536 71.0234 12.5859V13.5469C71.0234 14.0781 71.1146 14.5339 71.2969 14.9141C71.4844 15.2891 71.7448 15.5755 72.0781 15.7734C72.4167 15.9714 72.8099 16.0703 73.2578 16.0703C73.5495 16.0703 73.8151 16.0286 74.0547 15.9453C74.2995 15.862 74.5078 15.737 74.6797 15.5703C74.8568 15.3984 74.9922 15.1875 75.0859 14.9375L77.0078 15.1641C76.8828 15.6693 76.651 16.112 76.3125 16.4922C75.9792 16.8672 75.5495 17.1589 75.0234 17.3672C74.5026 17.5703 73.9036 17.6719 73.2266 17.6719ZM78.2188 17.5V8.76562H80.2109V10.2344H80.3047C80.4609 9.72396 80.7344 9.33333 81.125 9.0625C81.5156 8.78646 81.9609 8.64844 82.4609 8.64844C82.5703 8.64844 82.6953 8.65365 82.8359 8.66406C82.9818 8.67448 83.1016 8.6875 83.1953 8.70312V10.5938C83.1068 10.5625 82.9688 10.5365 82.7812 10.5156C82.5938 10.4948 82.4141 10.4844 82.2422 10.4844C81.862 10.4844 81.5234 10.5651 81.2266 10.7266C80.9297 10.888 80.6953 11.1094 80.5234 11.3906C80.3568 11.6719 80.2734 12 80.2734 12.375V17.5H78.2188ZM88.2031 5.3125L84.4531 19.25H82.6484L86.3984 5.3125H88.2031ZM90.7734 5.85938L93.3359 10.125H93.4297L96 5.85938H98.4062L94.8203 11.6875L98.4609 17.5H96.0234L93.4297 13.2656H93.3359L90.7422 17.5H88.3203L91.9922 11.6875L88.3672 5.85938H90.7734Z" fill="white"/>
</svg>
