<svg preserveAspectRatio="none" overflow="visible" style="display: block;" width="18.6667" height="29.3333" viewBox="0 0 18.6667 29.3333" fill="none" xmlns="http://www.w3.org/2000/svg">
<path id="Vector (Stroke)" d="M12 26.6667C12.7364 26.6667 13.3333 27.2636 13.3333 28C13.3333 28.7364 12.7364 29.3333 12 29.3333H6.66667C5.93029 29.3333 5.33333 28.7364 5.33333 28C5.33333 27.2636 5.93029 26.6667 6.66667 26.6667H12ZM13.3333 21.3333C14.0697 21.3333 14.6667 21.9303 14.6667 22.6667C14.6667 23.403 14.0697 24 13.3333 24H5.33333C4.59695 24 4 23.403 4 22.6667C4 21.9303 4.59695 21.3333 5.33333 21.3333H13.3333ZM16 9.33333C16 7.56522 15.2971 5.87003 14.0469 4.61979C12.7966 3.36955 11.1014 2.66667 9.33333 2.66667C7.56522 2.66667 5.87003 3.36955 4.61979 4.61979C3.36955 5.87003 2.66667 7.56522 2.66667 9.33333C2.66667 10.4057 2.85141 11.6327 4.27604 13.0573C5.28431 14.0656 6.29828 15.3603 6.64062 17.0716C6.78502 17.7936 6.31699 18.4961 5.59505 18.6406C4.87306 18.785 4.17057 18.317 4.02604 17.5951C3.835 16.6399 3.24898 15.8011 2.39062 14.9427C0.348588 12.9007 0 10.9277 0 9.33333C0 6.85798 0.982734 4.48341 2.73307 2.73307C4.48341 0.982733 6.85798 0 9.33333 0C11.8087 0 14.1833 0.982734 15.9336 2.73307C17.6839 4.48341 18.6667 6.85798 18.6667 9.33333C18.6667 11.3745 17.8879 13.4605 16.2747 14.9414L16.276 14.9427C15.2975 15.9212 14.8339 16.6286 14.6406 17.5951C14.4961 18.317 13.7936 18.785 13.0716 18.6406C12.3497 18.4961 11.8816 17.7936 12.026 17.0716C12.3661 15.3716 13.2359 14.212 14.3906 13.0573L14.4414 13.0091C15.4597 12.0926 16 10.7371 16 9.33333Z" fill="white"/>
</svg>
